<svg xmlns="http://www.w3.org/2000/svg" viewBox="-24 -24 48 48" width="48" height="48"><defs><linearGradient id="g" gradientUnits="userSpaceOnUse" x1="0" y1="-24" x2="0" y2="24"><stop offset="0" stop-color="#e6d9c2"/><stop offset="0.5" stop-color="#c9b79a"/><stop offset="1" stop-color="#8f7f66"/></linearGradient></defs><path fill="url(#g)" stroke="none" d=" M -18 24 L -18 18 -24 18 -24 24 -18 24 M -20 20 L -20 22 -22 22 -22 20 -20 20 M -24 -24 L -24 -18 -18 -18 -18 -24 -24 -24 M -22 -20 L -22 -22 -20 -22 -20 -20 -22 -20 M 24 24 L 24 18 18 18 18 24 24 24 M 22 20 L 22 22 20 22 20 20 22 20 M 18 -24 L 18 -18 24 -18 24 -24 18 -24 M 20 -20 L 20 -22 22 -22 22 -20 20 -20 M 16 -16 L 16 -24 -16 -24 -16 -16 -24 -16 -24 16 -16 16 -16 24 16 24 16 16 24 16 24 -16 16 -16 M 14 -22 L 14 -14 22 -14 22 14 14 14 14 22 -14 22 -14 14 -22 14 -22 -14 -14 -14 -14 -22 14 -22 Z"/></svg>